<?xml version="1.0"?>
<svg xmlns="http://www.w3.org/2000/svg" id="Capa_1" enable-background="new 0 0 512 512" height="512px" viewBox="0 0 512 512" width="512px" class=""><g><g><path d="m474.564 471.276h-437.128c-20.675 0-37.436-16.761-37.436-37.436v-387.047c0-3.352 2.717-6.069 6.069-6.069h424.989c3.352 0 6.069 2.717 6.069 6.069v56.132l51.747 176.591z" fill="#f9f6f6" data-original="#F9F6F6" class="" data-old_color="#f9f6f6" style="fill:#FFFFFF"/><path d="m434.524 471.276h40.04l.612-8.195v-113.228l-38.048-246.928v-56.132c0-3.368-2.732-6.069-6.069-6.069h-25.501v393.116c0 17.761 12.372 33.381 28.966 37.436z" fill="#dddaec" data-original="#DDDAEC" class="" style="fill:#E3E9ED" data-old_color="#dddaec"/><path d="m474.564 471.276c-20.676 0-37.436-16.761-37.436-37.436v-371.078h68.803c3.352 0 6.069 2.717 6.069 6.069v365.009c0 20.675-16.761 37.436-37.436 37.436z" fill="#dddaec" data-original="#DDDAEC" class="" style="fill:#E3E9ED" data-old_color="#dddaec"/><path d="m465.749 433.84v-371.078h-28.622v371.078c0 20.676 16.761 37.436 37.436 37.436 5.07 0 9.901-1.013 14.311-2.839-13.573-5.621-23.125-18.992-23.125-34.597z" fill="#d0cee7" data-original="#D0CEE7" class="active-path" style="fill:#488DE2" data-old_color="#d0cee7"/><g><g><g><path d="m83.1 156.834c-4.268 0-7.726-3.459-7.726-7.726v-69.543c0-3.381 2.199-6.37 5.427-7.376 3.231-1.004 6.736.203 8.658 2.986l34.528 50.001-.442-45.666c-.041-4.267 3.384-7.76 7.652-7.801 4.306-.057 7.759 3.385 7.801 7.652l.651 67.324c0 4.33-2.398 7.829-6.11 8.988-3.625 1.136-7.464-.289-9.775-3.626l-32.938-47.696v44.757c.001 4.267-3.458 7.726-7.726 7.726z" fill="#21386b" data-original="#21386B" class="" style="fill:#3469AA" data-old_color="#21386b"/></g></g><path d="m187.28 141.063h-21.362v-19.065h19.217c4.268 0 7.726-3.459 7.726-7.727s-3.459-7.726-7.726-7.726h-19.217v-19.065h21.362c4.268 0 7.726-3.459 7.726-7.727s-3.459-7.726-7.726-7.726h-29.089c-4.268 0-7.726 3.459-7.726 7.726v69.036c0 4.268 3.459 7.726 7.726 7.726h29.089c4.268 0 7.726-3.459 7.726-7.726.001-4.267-3.458-7.726-7.726-7.726z" fill="#21386b" data-original="#21386B" class="" style="fill:#3469AA" data-old_color="#21386b"/><g><g><path d="m329.292 156.834c-11.488 0-22.705-4.81-30.005-12.866-2.865-3.162-2.625-8.048.537-10.913s8.048-2.625 10.913.537c4.42 4.877 11.356 7.79 18.554 7.79 7.247 0 12.371-4.44 13.138-8.731 1.055-5.91-6.476-9.368-9.763-10.58-10.776-3.974-20.341-8.232-20.742-8.411-.372-.166-.73-.361-1.071-.584-7.023-4.578-10.641-12.609-9.443-20.959 1.281-8.924 7.822-16.198 17.07-18.984 18.535-5.585 33.804 7.012 34.445 7.551 3.267 2.745 3.688 7.62.943 10.886-2.736 3.256-7.588 3.684-10.852.971-.266-.214-9.741-7.721-20.078-4.612-5.014 1.51-6.028 4.967-6.231 6.383-.315 2.194.494 4.223 2.174 5.525 2.32 1.016 10.421 4.521 19.135 7.735 17.009 6.274 21.291 18.471 19.627 27.793-2.222 12.439-14.144 21.469-28.351 21.469z" fill="#21386b" data-original="#21386B" class="" style="fill:#3469AA" data-old_color="#21386b"/></g></g><path d="m289.434 71.985c-4.188-.837-8.253 1.884-9.086 6.069l-8.833 44.377-13.945-45.271c-1.257-4.079-5.583-6.366-9.659-5.11-2.795.861-4.747 3.163-5.296 5.838l-13.789 44.547-8.802-44.5c-.828-4.185-4.889-6.902-9.078-6.08-4.186.828-6.908 4.892-6.08 9.078l13.574 68.626c.784 3.996 4.555 7.274 9.06 7.274h.062c4.083-.028 7.618-2.71 8.808-6.508l13.817-44.638 13.754 44.648c2.859 9.293 16.156 8.232 17.933-.787l13.629-68.478c.834-4.184-1.884-8.252-6.069-9.085z" fill="#21386b" data-original="#21386B" class="" style="fill:#3469AA" data-old_color="#21386b"/></g><path d="m365.231 298.36h-81.176c-7.903 0-14.309-6.406-14.309-14.309v-81.176c0-7.903 6.407-14.309 14.309-14.309h81.176c7.903 0 14.309 6.407 14.309 14.309v81.176c.001 7.903-6.406 14.309-14.309 14.309z" fill="#df73c1" data-original="#DF73C1" class="" style="fill:#C7EBFF" data-old_color="#df73c1"/><path d="m365.231 188.566h-26.193c7.903 0 14.309 6.406 14.309 14.309v81.176c0 7.903-6.406 14.309-14.309 14.309h26.193c7.903 0 14.309-6.406 14.309-14.309v-81.176c0-7.903-6.406-14.309-14.309-14.309z" fill="#dd4fb1" data-original="#DD4FB1" class="" data-old_color="#dd4fb1" style="fill:#488DE2"/><g><path d="m220.246 211.867h-166.429c-4.268 0-7.726-3.459-7.726-7.726s3.459-7.726 7.726-7.726h166.43c4.268 0 7.726 3.459 7.726 7.726s-3.459 7.726-7.727 7.726z" fill="#21386b" data-original="#21386B" class="" style="fill:#3469AA" data-old_color="#21386b"/></g><g><path d="m220.246 254.763h-166.429c-4.268 0-7.726-3.459-7.726-7.726s3.459-7.726 7.726-7.726h166.43c4.268 0 7.726 3.459 7.726 7.726s-3.459 7.726-7.727 7.726z" fill="#21386b" data-original="#21386B" class="" style="fill:#3469AA" data-old_color="#21386b"/></g><g><path d="m220.246 297.659h-166.429c-4.268 0-7.726-3.459-7.726-7.726 0-4.268 3.459-7.726 7.726-7.726h166.43c4.268 0 7.726 3.459 7.726 7.726-.001 4.267-3.459 7.726-7.727 7.726z" fill="#21386b" data-original="#21386B" class="" style="fill:#3469AA" data-old_color="#21386b"/></g><g><path d="m379.541 340.555h-325.724c-4.268 0-7.726-3.459-7.726-7.726s3.459-7.726 7.726-7.726h325.724c4.268 0 7.726 3.459 7.726 7.726s-3.458 7.726-7.726 7.726z" fill="#21386b" data-original="#21386B" class="" style="fill:#3469AA" data-old_color="#21386b"/></g><g><path d="m379.541 383.45h-325.724c-4.268 0-7.726-3.459-7.726-7.726 0-4.268 3.459-7.726 7.726-7.726h325.724c4.268 0 7.726 3.459 7.726 7.726s-3.458 7.726-7.726 7.726z" fill="#21386b" data-original="#21386B" class="" style="fill:#3469AA" data-old_color="#21386b"/></g><g><path d="m379.541 426.347h-325.724c-4.268 0-7.726-3.459-7.726-7.726s3.459-7.726 7.726-7.726h325.724c4.268 0 7.726 3.459 7.726 7.726s-3.458 7.726-7.726 7.726z" fill="#21386b" data-original="#21386B" class="" style="fill:#3469AA" data-old_color="#21386b"/></g></g></g> </svg>
